<svg width="32" height="32" viewBox="0 0 32 32" fill="none" xmlns="http://www.w3.org/2000/svg">
<path opacity="0.2" d="M16 28C22.6274 28 28 22.6274 28 16C28 9.37258 22.6274 4 16 4C9.37258 4 4 9.37258 4 16C4 22.6274 9.37258 28 16 28Z" fill="#B7EAF5"/>
<path d="M16 28C22.6274 28 28 22.6274 28 16C28 9.37258 22.6274 4 16 4C9.37258 4 4 9.37258 4 16C4 22.6274 9.37258 28 16 28Z" stroke="#B7EAF5" stroke-width="2" stroke-linecap="round" stroke-linejoin="round"/>
<path d="M12.7545 15.6789C12.392 15.2622 11.7603 15.2183 11.3437 15.5808C10.927 15.9433 10.8831 16.5749 11.2456 16.9916L13.8598 19.9966C14.2584 20.4548 14.9701 20.4548 15.3687 19.9966L21.7545 12.6564C22.117 12.2397 22.073 11.6081 21.6564 11.2456C21.2397 10.8831 20.6081 10.927 20.2456 11.3437L14.6143 17.8167L12.7545 15.6789Z" fill="#5C9BCC"/>
</svg>
